<svg width="11" height="18" viewBox="0 0 11 18" fill="none" xmlns="http://www.w3.org/2000/svg">
<path d="M3.4733 9L10.5961 15.7046C10.8582 15.96 11.0032 16.3022 10.9999 16.6573C10.9967 17.0124 10.8453 17.3522 10.5785 17.6033C10.3118 17.8544 9.95085 17.9969 9.57356 17.9999C9.19627 18.003 8.83279 17.8665 8.56141 17.6198L0.421302 9.9576C0.151542 9.7036 -1.33927e-06 9.35915 -1.30787e-06 9C-1.27647e-06 8.64084 0.151542 8.29639 0.421302 8.0424L8.56141 0.380214C8.83279 0.133488 9.19628 -0.00303469 9.57356 5.13737e-05C9.95085 0.00313744 10.3118 0.145586 10.5785 0.396714C10.8453 0.647842 10.9967 0.987557 10.9999 1.34269C11.0032 1.69783 10.8582 2.03997 10.5961 2.29542L3.4733 9Z" fill="#D9D9D9"/>
</svg>
